# xmcd CD database file
#
# Track frame offsets:
#	150
#	27190
#	46496
#	75168
#	101574
#	130216
#	162787
#	178158
#	207612
#	239740
#	264963
#	298055
#	313168
#
# Disc length: 4432 seconds
#
# Revision: 0
# Processed by: cddbd v1.5.2PL0 Copyright (c) Steve Scherf et al.
# Submitted via: CDex 2.16
#
DISCID=b8114e0d
DTITLE=Dizzy Gillespie Quintet - Complete studio recordings - Disc 1
DYEAR=2012
DGENRE=Jazz
TTITLE0=My heart belongs to daddy
TTITLE1=My man
TTITLE2=Moonglow
TTITLE3=St. Louis blues
TTITLE4=Woody 'n' you
TTITLE5=Wrap your troubles in dreams
TTITLE6=There is no greater love
TTITLE7=I found a million dollar baby (in a five and ten cent store)
TTITLE8=Swing low, sweet Cadilac
TTITLE9=Always
TTITLE10=Willow weep for me
TTITLE11=Ungawa
TTITLE12=Lorraine
EXTD=YEAR: 2012
EXTT0=
EXTT1=
EXTT2=
EXTT3=
EXTT4=
EXTT5=
EXTT6=
EXTT7=
EXTT8=
EXTT9=
EXTT10=
EXTT11=
EXTT12=
PLAYORDER=
